<svg width="80" height="80" viewBox="0 0 80 80" fill="none" xmlns="http://www.w3.org/2000/svg">
<circle cx="40" cy="40" r="40" fill="#E4E7EC"/>
<g clip-path="url(#clip0_9_295)">
<path d="M54.1458 24.0835H41.8125C40.7903 24.0835 39.81 24.4895 39.0872 25.2123C38.3644 25.9351 37.9583 26.9155 37.9583 27.9376V28.4001L36.0081 25.0177C35.7618 24.5626 35.4275 24.1609 35.0248 23.8359C34.622 23.5109 34.1587 23.2691 33.6617 23.1246C32.8352 22.892 31.9546 22.9421 31.1597 23.2669C30.3649 23.5917 29.7012 24.1726 29.2741 24.9175L21.5781 38.2468C21.3082 38.6878 21.1283 39.178 21.0489 39.6889C20.9695 40.1999 20.9922 40.7216 21.1156 41.2237C21.3275 42.0542 21.8101 42.7903 22.4872 43.3158C23.1642 43.8412 23.9971 44.126 24.8542 44.1251H29.0167C28.5512 45.7486 28.4691 47.458 28.7769 49.1185C29.0847 50.7791 29.774 52.3455 30.7903 53.6943C31.8067 55.0431 33.1225 56.1374 34.6339 56.8909C36.1454 57.6445 37.8111 58.0367 39.5 58.0367C41.1889 58.0367 42.8547 57.6445 44.3661 56.8909C45.8775 56.1374 47.1933 55.0431 48.2097 53.6943C49.2261 52.3455 49.9153 50.7791 50.2231 49.1185C50.5309 47.458 50.4488 45.7486 49.9833 44.1251H54.1458C54.652 44.1251 55.1531 44.0254 55.6208 43.8318C56.0884 43.6381 56.5132 43.3542 56.8711 42.9963C57.229 42.6384 57.5129 42.2135 57.7066 41.7459C57.9003 41.2783 58 40.7771 58 40.271V27.9376C58 27.4315 57.9003 26.9303 57.7066 26.4627C57.5129 25.9951 57.229 25.5702 56.8711 25.2123C56.5132 24.8545 56.0884 24.5706 55.6208 24.3769C55.1531 24.1832 54.652 24.0835 54.1458 24.0835ZM26.1954 39.5001L32.6118 28.3863L37.2523 36.4168C35.1295 36.8657 33.1896 37.9396 31.6822 39.5001H26.1954ZM39.5 53.3751C38.2578 53.3751 37.0435 53.0068 36.0106 52.3166C34.9777 51.6265 34.1727 50.6456 33.6974 49.4979C33.222 48.3503 33.0976 47.0874 33.3399 45.8691C33.5823 44.6507 34.1805 43.5316 35.0588 42.6532C35.9372 41.7748 37.0563 41.1767 38.2747 40.9343C39.493 40.692 40.7559 40.8164 41.9035 41.2917C43.0512 41.7671 44.0321 42.5721 44.7223 43.605C45.4124 44.6378 45.7808 45.8522 45.7808 47.0944C45.7787 48.7595 45.1163 50.3559 43.9389 51.5333C42.7615 52.7107 41.1651 53.3731 39.5 53.3751ZM53.375 39.5001H47.3178C45.9964 38.1726 44.3714 37.1873 42.5833 36.6296V28.7085H53.375V39.5001Z" fill="#101828"/>
</g>
<defs>
<clipPath id="clip0_9_295">
<rect width="37" height="37" fill="white" transform="translate(21 21)"/>
</clipPath>
</defs>
</svg>
