<svg width="80" height="80" viewBox="0 0 80 80" fill="none" xmlns="http://www.w3.org/2000/svg">
<circle cx="40" cy="40" r="40" fill="#E4E7EC"/>
<g clip-path="url(#clip0_9_303)">
<path d="M58.6917 34.574L53.43 50.6073C53.0981 51.7224 52.5154 52.7467 51.7266 53.6018C50.9377 54.4569 49.9637 55.1201 48.879 55.5407C49.4551 54.1983 49.7515 52.7526 49.75 51.2918V35.8752C49.7467 33.014 48.6087 30.271 46.5856 28.2479C44.5625 26.2248 41.8195 25.0868 38.9583 25.0835H36.3915C37.3434 23.8241 38.658 22.8863 40.1586 22.3961C41.6592 21.9058 43.274 21.8865 44.7858 22.3409L53.5517 25.0326C55.4869 25.6338 57.1091 26.9698 58.0701 28.7537C59.0311 30.5377 59.2543 32.6273 58.6917 34.574ZM46.6667 35.8752V51.2918C46.6642 53.3355 45.8513 55.2947 44.4062 56.7397C42.9612 58.1848 41.002 58.9977 38.9583 59.0002H29.7083C27.6647 58.9977 25.7055 58.1848 24.2604 56.7397C22.8154 55.2947 22.0024 53.3355 22 51.2918V35.8752C22.0024 33.8315 22.8154 31.8723 24.2604 30.4272C25.7055 28.9822 27.6647 28.1693 29.7083 28.1668H38.9583C41.002 28.1693 42.9612 28.9822 44.4062 30.4272C45.8513 31.8723 46.6642 33.8315 46.6667 35.8752ZM40.5 42.0418C40.5 41.2241 40.1751 40.4398 39.5969 39.8616C39.0187 39.2833 38.2344 38.9585 37.4167 38.9585C36.5989 38.9585 35.8147 39.2833 35.2364 39.8616C34.6582 40.4398 34.3333 41.2241 34.3333 42.0418C34.3333 41.2241 34.0085 40.4398 33.4302 39.8616C32.852 39.2833 32.0677 38.9585 31.25 38.9585C30.4322 38.9585 29.648 39.2833 29.0698 39.8616C28.4915 40.4398 28.1667 41.2241 28.1667 42.0418C28.1667 44.2772 30.547 47.2696 32.3507 48.7912C32.9049 49.2601 33.6074 49.5174 34.3333 49.5174C35.0593 49.5174 35.7617 49.2601 36.3159 48.7912C38.1197 47.2696 40.5 44.2772 40.5 42.0418Z" fill="#101828"/>
</g>
<defs>
<clipPath id="clip0_9_303">
<rect width="37" height="37" fill="white" transform="translate(22 22)"/>
</clipPath>
</defs>
</svg>
